<svg width="832" height="832" viewBox="0 0 832 832" fill="none" xmlns="http://www.w3.org/2000/svg">
<mask id="mask0_289_10" style="mask-type:alpha" maskUnits="userSpaceOnUse" x="0" y="0" width="832" height="832">
<circle cx="416" cy="416" r="416" fill="#C4C4C4"/>
</mask>
<g mask="url(#mask0_289_10)">
<path d="M-35.0665 -31.8852C264.663 -31.8852 564.393 -31.8788 864.123 -31.9673C867.429 -31.9683 868.175 -31.2232 868.174 -27.9159C868.085 258.614 868.092 545.144 868.092 831.675C568.976 831.675 269.86 831.675 -29.2563 831.675C-33.1294 831.675 -35.0663 829.739 -35.067 825.867C-35.0669 539.95 -35.0667 254.032 -35.0665 -31.8852V-31.8852ZM400.26 413.78L399.925 413.781C399.925 413.193 399.921 412.606 399.925 412.018C400.275 364.105 398.38 316.189 399.852 268.284C400.195 257.131 398.66 246.779 393.423 236.885C381.536 214.426 364.502 197.67 340.474 188.623C322.152 181.724 303.951 181.219 285.683 189.354C271.099 195.848 256.572 202.797 241.398 207.559C219.899 214.305 197.997 220.252 174.908 215.316C163.243 212.822 151.846 209.792 141.406 203.856C131.33 198.126 123.778 189.412 115.473 181.619C108.417 174.998 101.415 168.381 92.9374 163.552C88.9794 161.298 87.0615 162.15 86.9199 166.599C86.4388 181.719 85.2111 196.817 85.4719 211.958C85.6591 222.825 86.2835 233.692 86.206 244.555C85.9494 280.554 85.1721 316.552 85.12 352.551C84.9665 458.683 85.0596 564.815 85.0843 670.948C85.0854 675.645 85.1197 680.366 85.5655 685.035C86.3479 693.229 89.8951 696.909 97.8782 698.921C115.879 703.457 133.623 701.056 150.861 695.799C172.511 689.197 191.262 676.525 210.223 664.61C226.408 654.438 238.531 639.787 250.886 625.476C257.688 617.598 264.622 609.823 271.762 602.251C285.514 587.667 303.082 584.356 322.109 585.868C331.44 586.609 340.111 589.731 348.559 593.618C353.218 595.761 357.997 597.643 362.738 599.603C372.969 603.834 375.414 613.195 377.475 622.559C378.248 626.072 379.923 628.118 383.037 629.17C386.317 630.278 389.524 629.38 391.332 626.658C395.256 620.752 399.577 614.946 399.76 607.309C400.078 594.1 400.346 580.896 400.285 567.678C400.133 534.604 400.252 501.529 400.259 468.455C400.263 450.23 400.26 432.005 400.26 413.78L400.26 413.78ZM749.006 424.61L748.737 424.61C748.737 415.354 748.761 406.097 748.733 396.841C748.62 359.514 748.526 322.186 748.356 284.859C748.252 261.935 747.68 239.009 748.728 216.095C749.482 199.62 748.165 183.209 747.482 166.777C747.319 162.863 745.13 161.512 742.218 163.201C731.909 169.179 722.999 176.858 715.081 185.692C697.153 205.693 674.102 214.583 647.983 217.108C638.596 218.015 629.611 215.548 620.452 214.517C610.959 213.449 601.698 211.005 592.864 207.688C577.381 201.874 562.224 195.178 547.009 188.67C526.536 179.913 506.389 182.126 486.939 191.252C470.167 199.121 456.751 211.533 446.687 227.013C438.404 239.755 432.155 253.425 434.282 269.486C435.006 274.95 434.875 280.521 434.773 286.097C434.299 312.101 434.21 338.114 434.168 364.124C434.043 442.891 434.092 521.659 433.811 600.425C433.778 609.565 436.622 617.205 441.535 624.559C443.769 627.902 446.123 630.28 450.413 629.369C454.689 628.461 456.417 625.726 457.291 621.407C458.955 613.183 461.048 604.539 469.648 600.736C478.198 596.954 486.763 593.13 495.474 589.738C507.65 584.998 520.17 584.377 533.141 586.827C544.214 588.918 553.711 593.356 561.66 601.2C571.685 611.094 580.394 622.165 589.598 632.789C602.349 647.507 616.379 660.734 633.265 670.611C642.48 676.001 651.967 680.925 661.303 686.109C685.533 699.564 711.086 704.734 738.455 698.433C743.866 697.188 747.124 693.585 748.147 688.225C748.748 685.073 748.971 681.805 748.972 678.589C749.015 593.929 749.006 509.27 749.006 424.61H749.006ZM417.3 183.87C420.673 183.87 424.068 184.119 427.415 183.825C438.784 182.824 447.197 174.3 447.819 162.883C448.402 152.168 445.933 142.3 438.435 134.139C435.873 131.351 433.286 128.576 430.871 125.662C425.975 119.751 412.538 117.374 406.977 122.462C396.196 132.327 386.473 142.967 386.603 159.189C386.686 169.651 390.007 177.757 399.98 182.272C405.569 184.802 411.477 183.928 417.3 183.87V183.87Z" fill="#F7C701"/>
<path d="M-35.0667 -31.8843C-35.0669 254.033 -35.0671 539.951 -35.0671 825.868C-35.0671 829.739 -33.1302 831.675 -29.2564 831.676C269.86 831.676 568.976 831.676 868.092 831.675C867.899 831.947 868.538 832.595 867.65 832.567C866.475 832.529 865.299 832.558 864.123 832.558C565.422 832.558 266.721 832.551 -31.9795 832.64C-35.2856 832.641 -36.0319 831.896 -36.0308 828.588C-35.9419 543.087 -35.9504 257.586 -35.8942 -27.9145C-35.894 -29.2054 -36.9115 -30.9057 -35.0667 -31.8843V-31.8843Z" fill="#FEFEFE"/>
<path d="M400.26 413.78C400.26 432.005 400.263 450.23 400.26 468.454C400.253 501.529 400.133 534.604 400.286 567.678C400.346 580.896 400.078 594.1 399.761 607.309C399.577 614.946 395.256 620.752 391.333 626.658C389.524 629.38 386.317 630.278 383.037 629.17C379.923 628.118 378.248 626.072 377.475 622.558C375.414 613.195 372.969 603.834 362.739 599.603C357.998 597.643 353.218 595.761 348.56 593.618C340.111 589.731 331.441 586.609 322.109 585.868C303.082 584.356 285.514 587.666 271.762 602.251C264.623 609.823 257.688 617.598 250.887 625.476C238.531 639.787 226.408 654.438 210.223 664.609C191.263 676.525 172.511 689.197 150.861 695.799C133.624 701.056 115.879 703.456 97.8786 698.921C89.8955 696.909 86.3483 693.228 85.5659 685.035C85.1201 680.366 85.0858 675.645 85.0847 670.947C85.06 564.815 84.9669 458.683 85.1204 352.55C85.1725 316.552 85.9498 280.554 86.2064 244.555C86.2839 233.692 85.6595 222.825 85.4723 211.957C85.2115 196.817 86.4392 181.719 86.9203 166.599C87.0619 162.15 88.9798 161.298 92.9378 163.552C101.415 168.381 108.417 174.998 115.473 181.619C123.778 189.412 131.33 198.126 141.406 203.856C151.846 209.792 163.243 212.822 174.908 215.316C197.997 220.252 219.9 214.304 241.398 207.559C256.573 202.797 271.099 195.848 285.683 189.354C303.951 181.219 322.152 181.724 340.475 188.623C364.502 197.67 381.536 214.426 393.423 236.885C398.66 246.778 400.196 257.131 399.853 268.284C398.38 316.189 400.275 364.105 399.926 412.018C399.922 412.606 399.925 413.193 399.925 413.781L400.26 413.78H400.26Z" fill="#010101"/>
<path d="M749.007 424.61C749.007 509.27 749.015 593.93 748.973 678.589C748.971 681.805 748.749 685.073 748.147 688.225C747.124 693.585 743.867 697.188 738.456 698.433C711.086 704.734 685.533 699.564 661.303 686.109C651.967 680.925 642.48 676.002 633.266 670.611C616.38 660.734 602.35 647.507 589.598 632.789C580.394 622.165 571.686 611.094 561.661 601.2C553.712 593.356 544.214 588.918 533.141 586.827C520.171 584.377 507.651 584.998 495.475 589.738C486.763 593.13 478.198 596.954 469.649 600.736C461.049 604.539 458.955 613.183 457.291 621.407C456.417 625.726 454.689 628.461 450.414 629.369C446.124 630.28 443.77 627.902 441.536 624.559C436.622 617.205 433.778 609.565 433.811 600.425C434.093 521.659 434.043 442.891 434.169 364.124C434.21 338.114 434.299 312.101 434.774 286.097C434.875 280.521 435.006 274.95 434.283 269.486C432.155 253.426 438.404 239.756 446.688 227.013C456.751 211.533 470.167 199.122 486.939 191.252C506.39 182.126 526.537 179.914 547.009 188.67C562.225 195.178 577.382 201.874 592.864 207.688C601.699 211.005 610.959 213.449 620.453 214.517C629.611 215.548 638.597 218.015 647.983 217.108C674.103 214.583 697.154 205.694 715.081 185.692C723 176.859 731.91 169.179 742.219 163.201C745.131 161.512 747.32 162.864 747.482 166.778C748.166 183.209 749.483 199.62 748.729 216.095C747.68 239.009 748.252 261.935 748.357 284.859C748.527 322.186 748.621 359.514 748.733 396.841C748.761 406.097 748.737 415.354 748.737 424.61L749.007 424.61V424.61Z" fill="#010101"/>
<path d="M417.301 183.87C411.477 183.928 405.569 184.802 399.98 182.272C390.007 177.757 386.687 169.651 386.603 159.189C386.473 142.967 396.197 132.326 406.977 122.462C412.538 117.374 425.975 119.751 430.872 125.662C433.286 128.576 435.873 131.351 438.435 134.139C445.934 142.3 448.402 152.168 447.819 162.883C447.198 174.3 438.785 182.824 427.415 183.824C424.068 184.119 420.674 183.87 417.301 183.87V183.87Z" fill="#010101"/>
</g>
</svg>
